<svg xmlns="http://www.w3.org/2000/svg" xmlns:xlink="http://www.w3.org/1999/xlink" version="1.1" id="Layer_1" x="0px" y="0px" width="100px" height="100px" viewBox="0 -8 100 100" enable-background="new 0 -8 100 100" xml:space="preserve">
<path fill="#000000" d="M99.987,36.735V-7.42L85.644,6.924C76.423-2.451,63.693-8,50.002-8c-27.57,0-50,22.43-50,50s22.43,50,50,50  c20.376,0,38.539-12.181,46.273-31.032c2.141-5.217-0.354-11.181-5.57-13.321c-5.216-2.144-11.182,0.354-13.322,5.57  c-4.575,11.155-15.324,18.362-27.381,18.362c-16.31,0-29.579-13.269-29.579-29.579c0-16.31,13.269-29.579,29.579-29.579  c8.155,0,15.739,3.325,21.203,8.941L55.832,36.735H99.987z"/>
</svg>