<svg xmlns="http://www.w3.org/2000/svg" xmlns:xlink="http://www.w3.org/1999/xlink" version="1.1" id="Layer_1" x="0px" y="0px" width="100.0px" height="100px" viewBox="0 0 283.46 283.46" enable-background="new 0 0 283.46 283.46" xml:space="preserve">
<g>
	<g>
		<path d="M175.721,168.429c-34.699,0-62.911-28.223-62.911-62.91c0-34.694,28.211-62.911,62.911-62.911    c34.688,0,62.911,28.217,62.911,62.911C238.632,140.206,210.408,168.429,175.721,168.429z M175.721,57.973    c-26.215,0-47.557,21.331-47.557,47.546s21.342,47.545,47.557,47.545s47.534-21.33,47.534-47.545S201.936,57.973,175.721,57.973z"/>
	</g>
	<g>
		<path d="M122.27,159.796c6.393,6.161,7.368,15.525,2.187,20.909l-23.173,30.956l-30.089,24.266    c-5.181,5.371-14.569,4.729-20.962-1.45l0,0c-6.394-6.167-7.38-15.52-2.187-20.902l22.008-33.143l31.241-22.067    C106.488,152.986,115.876,153.628,122.27,159.796L122.27,159.796z"/>
	</g>
	<g>
		<path d="M142.495,160.996c-3.862,3.726-9.222,4.438-12.002,1.58l-10.018-10.356c-2.769-2.857-1.89-8.199,1.96-11.925l0,0    c3.862-3.725,9.222-4.438,11.99-1.574l10.03,10.351C147.225,151.929,146.345,157.271,142.495,160.996L142.495,160.996z"/>
	</g>
	<g>
		<path d="M144.919,101.032c0,0,3.423-26.256,32.24-29.773"/>
	</g>
</g>
</svg>